<?xml version="1.0" encoding="utf-8" standalone="no"?>
<!DOCTYPE svg PUBLIC "-//W3C//DTD SVG 1.1//EN"
  "http://www.w3.org/Graphics/SVG/1.1/DTD/svg11.dtd">
<!-- Created with matplotlib (http://matplotlib.org/) -->
<svg height="300.690125pt" version="1.1" viewBox="0 0 406.302813 300.690125" width="406.302813pt" xmlns="http://www.w3.org/2000/svg" xmlns:xlink="http://www.w3.org/1999/xlink">
 <defs>
  <style type="text/css">
*{stroke-linecap:butt;stroke-linejoin:round;}
  </style>
 </defs>
 <g id="figure_1">
  <g id="patch_1">
   <path d="M 0 300.690125 
L 406.302813 300.690125 
L 406.302813 0 
L 0 0 
z
" style="fill:#ffffff;"/>
  </g>
  <g id="axes_1">
   <g id="patch_2">
    <path clip-path="url(#pc745ac8978)" d="M 217.042813 254.636 
C 246.448532 254.636 274.653829 242.952984 295.446812 222.16 
C 316.239796 201.367016 327.922813 173.16172 327.922813 143.756 
C 327.922813 114.35028 316.239796 86.144984 295.446812 65.352 
C 274.653829 44.559016 246.448532 32.876 217.042813 32.876 
C 187.637093 32.876 159.431796 44.559016 138.638813 65.352 
C 117.845829 86.144984 106.162813 114.35028 106.162813 143.756 
C 106.162813 173.16172 117.845829 201.367016 138.638813 222.16 
C 159.431796 242.952984 187.637093 254.636 217.042813 254.636 
z
" style="fill:none;stroke:#000000;stroke-linejoin:miter;stroke-width:2;"/>
   </g>
   <g id="line2d_1">
    <defs>
     <path d="M 0 3 
C 0.795609 3 1.55874 2.683901 2.12132 2.12132 
C 2.683901 1.55874 3 0.795609 3 0 
C 3 -0.795609 2.683901 -1.55874 2.12132 -2.12132 
C 1.55874 -2.683901 0.795609 -3 0 -3 
C -0.795609 -3 -1.55874 -2.683901 -2.12132 -2.12132 
C -2.683901 -1.55874 -3 -0.795609 -3 0 
C -3 0.795609 -2.683901 1.55874 -2.12132 2.12132 
C -1.55874 2.683901 -0.795609 3 0 3 
z
" id="mdb0c15bfb2" style="stroke:#4b9dda;"/>
    </defs>
    <g clip-path="url(#pc745ac8978)">
     <use style="fill:#4b9dda;stroke:#4b9dda;" x="215.35103" xlink:href="#mdb0c15bfb2" y="145.735439"/>
     <use style="fill:#4b9dda;stroke:#4b9dda;" x="206.855271" xlink:href="#mdb0c15bfb2" y="122.049708"/>
     <use style="fill:#4b9dda;stroke:#4b9dda;" x="221.586339" xlink:href="#mdb0c15bfb2" y="104.530888"/>
     <use style="fill:#4b9dda;stroke:#4b9dda;" x="223.552988" xlink:href="#mdb0c15bfb2" y="80.607893"/>
     <use style="fill:#4b9dda;stroke:#4b9dda;" x="239.657721" xlink:href="#mdb0c15bfb2" y="65.146199"/>
     <use style="fill:#4b9dda;stroke:#4b9dda;" x="259.059368" xlink:href="#mdb0c15bfb2" y="53.992958"/>
     <use style="fill:#4b9dda;stroke:#4b9dda;" x="277.322594" xlink:href="#mdb0c15bfb2" y="67.264572"/>
     <use style="fill:#4b9dda;stroke:#4b9dda;" x="288.396215" xlink:href="#mdb0c15bfb2" y="86.809432"/>
     <use style="fill:#4b9dda;stroke:#4b9dda;" x="288.277979" xlink:href="#mdb0c15bfb2" y="109.604069"/>
     <use style="fill:#4b9dda;stroke:#4b9dda;" x="289.383137" xlink:href="#mdb0c15bfb2" y="132.391065"/>
     <use style="fill:#4b9dda;stroke:#4b9dda;" x="291.213591" xlink:href="#mdb0c15bfb2" y="157.359032"/>
     <use style="fill:#4b9dda;stroke:#4b9dda;" x="285.190063" xlink:href="#mdb0c15bfb2" y="181.283506"/>
     <use style="fill:#4b9dda;stroke:#4b9dda;" x="278.669759" xlink:href="#mdb0c15bfb2" y="203.54402"/>
     <use style="fill:#4b9dda;stroke:#4b9dda;" x="300.436346" xlink:href="#mdb0c15bfb2" y="198.275326"/>
     <use style="fill:#4b9dda;stroke:#4b9dda;" x="307.998422" xlink:href="#mdb0c15bfb2" y="98.440461"/>
     <use style="fill:#4b9dda;stroke:#4b9dda;" x="266.099911" xlink:href="#mdb0c15bfb2" y="87.207849"/>
     <use style="fill:#4b9dda;stroke:#4b9dda;" x="201.859669" xlink:href="#mdb0c15bfb2" y="86.164074"/>
     <use style="fill:#4b9dda;stroke:#4b9dda;" x="179.346843" xlink:href="#mdb0c15bfb2" y="98.102717"/>
     <use style="fill:#4b9dda;stroke:#4b9dda;" x="158.079823" xlink:href="#mdb0c15bfb2" y="106.15892"/>
     <use style="fill:#4b9dda;stroke:#4b9dda;" x="136.115444" xlink:href="#mdb0c15bfb2" y="105.16882"/>
     <use style="fill:#4b9dda;stroke:#4b9dda;" x="124.861383" xlink:href="#mdb0c15bfb2" y="127.016926"/>
     <use style="fill:#4b9dda;stroke:#4b9dda;" x="126.486269" xlink:href="#mdb0c15bfb2" y="152.997192"/>
     <use style="fill:#4b9dda;stroke:#4b9dda;" x="135.352674" xlink:href="#mdb0c15bfb2" y="174.329757"/>
     <use style="fill:#4b9dda;stroke:#4b9dda;" x="139.305562" xlink:href="#mdb0c15bfb2" y="196.021521"/>
     <use style="fill:#4b9dda;stroke:#4b9dda;" x="155.945321" xlink:href="#mdb0c15bfb2" y="213.064594"/>
     <use style="fill:#4b9dda;stroke:#4b9dda;" x="175.888745" xlink:href="#mdb0c15bfb2" y="226.646498"/>
     <use style="fill:#4b9dda;stroke:#4b9dda;" x="196.74027" xlink:href="#mdb0c15bfb2" y="215.537358"/>
     <use style="fill:#4b9dda;stroke:#4b9dda;" x="217.691161" xlink:href="#mdb0c15bfb2" y="202.981369"/>
     <use style="fill:#4b9dda;stroke:#4b9dda;" x="233.554384" xlink:href="#mdb0c15bfb2" y="186.479253"/>
     <use style="fill:#4b9dda;stroke:#4b9dda;" x="253.474762" xlink:href="#mdb0c15bfb2" y="171.533011"/>
     <use style="fill:#4b9dda;stroke:#4b9dda;" x="218.850533" xlink:href="#mdb0c15bfb2" y="52.148844"/>
     <use style="fill:#4b9dda;stroke:#4b9dda;" x="193.628573" xlink:href="#mdb0c15bfb2" y="53.100817"/>
     <use style="fill:#4b9dda;stroke:#4b9dda;" x="170.140333" xlink:href="#mdb0c15bfb2" y="61.722668"/>
     <use style="fill:#4b9dda;stroke:#4b9dda;" x="147.367957" xlink:href="#mdb0c15bfb2" y="63.458487"/>
     <use style="fill:#4b9dda;stroke:#4b9dda;" x="162.856042" xlink:href="#mdb0c15bfb2" y="127.690255"/>
     <use style="fill:#4b9dda;stroke:#4b9dda;" x="171.948415" xlink:href="#mdb0c15bfb2" y="147.615614"/>
     <use style="fill:#4b9dda;stroke:#4b9dda;" x="193.716102" xlink:href="#mdb0c15bfb2" y="163.137129"/>
     <use style="fill:#4b9dda;stroke:#4b9dda;" x="240.94229" xlink:href="#mdb0c15bfb2" y="142.373202"/>
     <use style="fill:#4b9dda;stroke:#4b9dda;" x="266.91018" xlink:href="#mdb0c15bfb2" y="132.070887"/>
     <use style="fill:#4b9dda;stroke:#4b9dda;" x="311.010038" xlink:href="#mdb0c15bfb2" y="120.65737"/>
     <use style="fill:#4b9dda;stroke:#4b9dda;" x="313.376248" xlink:href="#mdb0c15bfb2" y="154.169875"/>
     <use style="fill:#4b9dda;stroke:#4b9dda;" x="308.974916" xlink:href="#mdb0c15bfb2" y="177.798179"/>
     <use style="fill:#4b9dda;stroke:#4b9dda;" x="283.277164" xlink:href="#mdb0c15bfb2" y="226.880922"/>
     <use style="fill:#4b9dda;stroke:#4b9dda;" x="257.970294" xlink:href="#mdb0c15bfb2" y="232.862162"/>
     <use style="fill:#4b9dda;stroke:#4b9dda;" x="235.185048" xlink:href="#mdb0c15bfb2" y="243.115396"/>
     <use style="fill:#4b9dda;stroke:#4b9dda;" x="212.326909" xlink:href="#mdb0c15bfb2" y="247.543291"/>
     <use style="fill:#4b9dda;stroke:#4b9dda;" x="190.218867" xlink:href="#mdb0c15bfb2" y="243.067545"/>
     <use style="fill:#4b9dda;stroke:#4b9dda;" x="151.388959" xlink:href="#mdb0c15bfb2" y="159.243938"/>
     <use style="fill:#4b9dda;stroke:#4b9dda;" x="157.768482" xlink:href="#mdb0c15bfb2" y="82.954843"/>
     <use style="fill:#4b9dda;stroke:#4b9dda;" x="239.979158" xlink:href="#mdb0c15bfb2" y="42.738797"/>
     <use style="fill:#4b9dda;stroke:#4b9dda;" x="176.496861" xlink:href="#mdb0c15bfb2" y="204.237211"/>
     <use style="fill:#4b9dda;stroke:#4b9dda;" x="160.344999" xlink:href="#mdb0c15bfb2" y="187.33849"/>
     <use style="fill:#4b9dda;stroke:#4b9dda;" x="134.961689" xlink:href="#mdb0c15bfb2" y="82.176067"/>
     <use style="fill:#4b9dda;stroke:#4b9dda;" x="193.20789" xlink:href="#mdb0c15bfb2" y="188.97058"/>
     <use style="fill:#4b9dda;stroke:#4b9dda;" x="268.330375" xlink:href="#mdb0c15bfb2" y="154.318665"/>
     <use style="fill:#4b9dda;stroke:#4b9dda;" x="112.704529" xlink:href="#mdb0c15bfb2" y="171.302824"/>
     <use style="fill:#4b9dda;stroke:#4b9dda;" x="244.310185" xlink:href="#mdb0c15bfb2" y="92.837107"/>
     <use style="fill:#4b9dda;stroke:#4b9dda;" x="231.781585" xlink:href="#mdb0c15bfb2" y="220.642672"/>
     <use style="fill:#4b9dda;stroke:#4b9dda;" x="246.986861" xlink:href="#mdb0c15bfb2" y="203.886504"/>
     <use style="fill:#4b9dda;stroke:#4b9dda;" x="143.351755" xlink:href="#mdb0c15bfb2" y="138.801417"/>
     <use style="fill:#4b9dda;stroke:#4b9dda;" x="232.86651" xlink:href="#mdb0c15bfb2" y="162.402797"/>
     <use style="fill:#4b9dda;stroke:#4b9dda;" x="183.678228" xlink:href="#mdb0c15bfb2" y="120.020713"/>
     <use style="fill:#4b9dda;stroke:#4b9dda;" x="213.91163" xlink:href="#mdb0c15bfb2" y="176.195411"/>
     <use style="fill:#4b9dda;stroke:#4b9dda;" x="266.170322" xlink:href="#mdb0c15bfb2" y="109.247517"/>
     <use style="fill:#4b9dda;stroke:#4b9dda;" x="113.79736" xlink:href="#mdb0c15bfb2" y="104.545724"/>
     <use style="fill:#4b9dda;stroke:#4b9dda;" x="205.500616" xlink:href="#mdb0c15bfb2" y="34.392333"/>
     <use style="fill:#4b9dda;stroke:#4b9dda;" x="107.022521" xlink:href="#mdb0c15bfb2" y="141.450354"/>
    </g>
   </g>
  </g>
 </g>
 <defs>
  <clipPath id="pc745ac8978">
   <rect height="266.112" width="357.12" x="38.482813" y="10.7"/>
  </clipPath>
 </defs>
</svg>
