<?xml version="1.0" encoding="utf-8" standalone="no"?>
<!DOCTYPE svg PUBLIC "-//W3C//DTD SVG 1.1//EN"
  "http://www.w3.org/Graphics/SVG/1.1/DTD/svg11.dtd">
<!-- Created with matplotlib (http://matplotlib.org/) -->
<svg height="300.690125pt" version="1.1" viewBox="0 0 406.302813 300.690125" width="406.302813pt" xmlns="http://www.w3.org/2000/svg" xmlns:xlink="http://www.w3.org/1999/xlink">
 <defs>
  <style type="text/css">
*{stroke-linecap:butt;stroke-linejoin:round;}
  </style>
 </defs>
 <g id="figure_1">
  <g id="patch_1">
   <path d="M 0 300.690125 
L 406.302813 300.690125 
L 406.302813 0 
L 0 0 
z
" style="fill:#ffffff;"/>
  </g>
  <g id="axes_1">
   <g id="patch_2">
    <path clip-path="url(#pc6b5313589)" d="M 217.042813 254.636 
C 246.448532 254.636 274.653829 242.952984 295.446812 222.16 
C 316.239796 201.367016 327.922813 173.16172 327.922813 143.756 
C 327.922813 114.35028 316.239796 86.144984 295.446812 65.352 
C 274.653829 44.559016 246.448532 32.876 217.042813 32.876 
C 187.637093 32.876 159.431796 44.559016 138.638813 65.352 
C 117.845829 86.144984 106.162813 114.35028 106.162813 143.756 
C 106.162813 173.16172 117.845829 201.367016 138.638813 222.16 
C 159.431796 242.952984 187.637093 254.636 217.042813 254.636 
z
" style="fill:none;stroke:#000000;stroke-linejoin:miter;stroke-width:2;"/>
   </g>
   <g id="line2d_1">
    <defs>
     <path d="M 0 3 
C 0.795609 3 1.55874 2.683901 2.12132 2.12132 
C 2.683901 1.55874 3 0.795609 3 0 
C 3 -0.795609 2.683901 -1.55874 2.12132 -2.12132 
C 1.55874 -2.683901 0.795609 -3 0 -3 
C -0.795609 -3 -1.55874 -2.683901 -2.12132 -2.12132 
C -2.683901 -1.55874 -3 -0.795609 -3 0 
C -3 0.795609 -2.683901 1.55874 -2.12132 2.12132 
C -1.55874 2.683901 -0.795609 3 0 3 
z
" id="mc1a288e3ba" style="stroke:#4b9dda;"/>
    </defs>
    <g clip-path="url(#pc6b5313589)">
     <use style="fill:#4b9dda;stroke:#4b9dda;" x="230.660056" xlink:href="#mc1a288e3ba" y="136.580593"/>
     <use style="fill:#4b9dda;stroke:#4b9dda;" x="209.436359" xlink:href="#mc1a288e3ba" y="129.370506"/>
     <use style="fill:#4b9dda;stroke:#4b9dda;" x="225.896339" xlink:href="#mc1a288e3ba" y="114.521829"/>
     <use style="fill:#4b9dda;stroke:#4b9dda;" x="219.291754" xlink:href="#mc1a288e3ba" y="93.152296"/>
     <use style="fill:#4b9dda;stroke:#4b9dda;" x="236.986325" xlink:href="#mc1a288e3ba" y="78.436179"/>
     <use style="fill:#4b9dda;stroke:#4b9dda;" x="252.952091" xlink:href="#mc1a288e3ba" y="62.661271"/>
     <use style="fill:#4b9dda;stroke:#4b9dda;" x="275.158087" xlink:href="#mc1a288e3ba" y="69.44821"/>
     <use style="fill:#4b9dda;stroke:#4b9dda;" x="280.062265" xlink:href="#mc1a288e3ba" y="90.926544"/>
     <use style="fill:#4b9dda;stroke:#4b9dda;" x="284.993656" xlink:href="#mc1a288e3ba" y="113.462471"/>
     <use style="fill:#4b9dda;stroke:#4b9dda;" x="291.475504" xlink:href="#mc1a288e3ba" y="134.239342"/>
     <use style="fill:#4b9dda;stroke:#4b9dda;" x="284.815527" xlink:href="#mc1a288e3ba" y="155.179003"/>
     <use style="fill:#4b9dda;stroke:#4b9dda;" x="278.150768" xlink:href="#mc1a288e3ba" y="176.029605"/>
     <use style="fill:#4b9dda;stroke:#4b9dda;" x="268.080761" xlink:href="#mc1a288e3ba" y="196.014498"/>
     <use style="fill:#4b9dda;stroke:#4b9dda;" x="291.62871" xlink:href="#mc1a288e3ba" y="192.608133"/>
     <use style="fill:#4b9dda;stroke:#4b9dda;" x="301.665176" xlink:href="#mc1a288e3ba" y="98.488382"/>
     <use style="fill:#4b9dda;stroke:#4b9dda;" x="258.762236" xlink:href="#mc1a288e3ba" y="84.419746"/>
     <use style="fill:#4b9dda;stroke:#4b9dda;" x="203.905876" xlink:href="#mc1a288e3ba" y="108.158112"/>
     <use style="fill:#4b9dda;stroke:#4b9dda;" x="182.01082" xlink:href="#mc1a288e3ba" y="101.033658"/>
     <use style="fill:#4b9dda;stroke:#4b9dda;" x="165.117541" xlink:href="#mc1a288e3ba" y="116.529739"/>
     <use style="fill:#4b9dda;stroke:#4b9dda;" x="143.244513" xlink:href="#mc1a288e3ba" y="108.681601"/>
     <use style="fill:#4b9dda;stroke:#4b9dda;" x="126.626799" xlink:href="#mc1a288e3ba" y="123.321449"/>
     <use style="fill:#4b9dda;stroke:#4b9dda;" x="131.413599" xlink:href="#mc1a288e3ba" y="145.702202"/>
     <use style="fill:#4b9dda;stroke:#4b9dda;" x="136.494847" xlink:href="#mc1a288e3ba" y="166.70521"/>
     <use style="fill:#4b9dda;stroke:#4b9dda;" x="143.886659" xlink:href="#mc1a288e3ba" y="188.376333"/>
     <use style="fill:#4b9dda;stroke:#4b9dda;" x="166.01548" xlink:href="#mc1a288e3ba" y="191.545372"/>
     <use style="fill:#4b9dda;stroke:#4b9dda;" x="180.392212" xlink:href="#mc1a288e3ba" y="209.337272"/>
     <use style="fill:#4b9dda;stroke:#4b9dda;" x="202.547825" xlink:href="#mc1a288e3ba" y="206.219715"/>
     <use style="fill:#4b9dda;stroke:#4b9dda;" x="223.943399" xlink:href="#mc1a288e3ba" y="202.634953"/>
     <use style="fill:#4b9dda;stroke:#4b9dda;" x="231.431107" xlink:href="#mc1a288e3ba" y="181.815623"/>
     <use style="fill:#4b9dda;stroke:#4b9dda;" x="254.322706" xlink:href="#mc1a288e3ba" y="179.314856"/>
     <use style="fill:#4b9dda;stroke:#4b9dda;" x="214.881432" xlink:href="#mc1a288e3ba" y="71.348975"/>
     <use style="fill:#4b9dda;stroke:#4b9dda;" x="198.63956" xlink:href="#mc1a288e3ba" y="86.459253"/>
     <use style="fill:#4b9dda;stroke:#4b9dda;" x="176.823672" xlink:href="#mc1a288e3ba" y="79.41065"/>
     <use style="fill:#4b9dda;stroke:#4b9dda;" x="156.539729" xlink:href="#mc1a288e3ba" y="72.130492"/>
     <use style="fill:#4b9dda;stroke:#4b9dda;" x="171.414288" xlink:href="#mc1a288e3ba" y="138.390138"/>
     <use style="fill:#4b9dda;stroke:#4b9dda;" x="176.877603" xlink:href="#mc1a288e3ba" y="160.054257"/>
     <use style="fill:#4b9dda;stroke:#4b9dda;" x="196.880175" xlink:href="#mc1a288e3ba" y="166.991002"/>
     <use style="fill:#4b9dda;stroke:#4b9dda;" x="252.541812" xlink:href="#mc1a288e3ba" y="142.344131"/>
     <use style="fill:#4b9dda;stroke:#4b9dda;" x="268.306588" xlink:href="#mc1a288e3ba" y="128.352718"/>
     <use style="fill:#4b9dda;stroke:#4b9dda;" x="307.295107" xlink:href="#mc1a288e3ba" y="119.971899"/>
     <use style="fill:#4b9dda;stroke:#4b9dda;" x="306.756013" xlink:href="#mc1a288e3ba" y="150.820983"/>
     <use style="fill:#4b9dda;stroke:#4b9dda;" x="299.535285" xlink:href="#mc1a288e3ba" y="172.300306"/>
     <use style="fill:#4b9dda;stroke:#4b9dda;" x="283.311644" xlink:href="#mc1a288e3ba" y="213.916691"/>
     <use style="fill:#4b9dda;stroke:#4b9dda;" x="260.183542" xlink:href="#mc1a288e3ba" y="216.350295"/>
     <use style="fill:#4b9dda;stroke:#4b9dda;" x="229.460725" xlink:href="#mc1a288e3ba" y="241.369381"/>
     <use style="fill:#4b9dda;stroke:#4b9dda;" x="215.241185" xlink:href="#mc1a288e3ba" y="223.976745"/>
     <use style="fill:#4b9dda;stroke:#4b9dda;" x="193.599403" xlink:href="#mc1a288e3ba" y="227.234167"/>
     <use style="fill:#4b9dda;stroke:#4b9dda;" x="152.326131" xlink:href="#mc1a288e3ba" y="151.413674"/>
     <use style="fill:#4b9dda;stroke:#4b9dda;" x="160.573412" xlink:href="#mc1a288e3ba" y="94.32212"/>
     <use style="fill:#4b9dda;stroke:#4b9dda;" x="231.464244" xlink:href="#mc1a288e3ba" y="56.145743"/>
     <use style="fill:#4b9dda;stroke:#4b9dda;" x="187.091045" xlink:href="#mc1a288e3ba" y="187.637278"/>
     <use style="fill:#4b9dda;stroke:#4b9dda;" x="158.143394" xlink:href="#mc1a288e3ba" y="173.034829"/>
     <use style="fill:#4b9dda;stroke:#4b9dda;" x="139.769866" xlink:href="#mc1a288e3ba" y="86.494454"/>
     <use style="fill:#4b9dda;stroke:#4b9dda;" x="209.490024" xlink:href="#mc1a288e3ba" y="184.946671"/>
     <use style="fill:#4b9dda;stroke:#4b9dda;" x="262.406311" xlink:href="#mc1a288e3ba" y="160.69392"/>
     <use style="fill:#4b9dda;stroke:#4b9dda;" x="115.348535" xlink:href="#mc1a288e3ba" y="161.065642"/>
     <use style="fill:#4b9dda;stroke:#4b9dda;" x="242.144539" xlink:href="#mc1a288e3ba" y="99.378129"/>
     <use style="fill:#4b9dda;stroke:#4b9dda;" x="237.283142" xlink:href="#mc1a288e3ba" y="220.405686"/>
     <use style="fill:#4b9dda;stroke:#4b9dda;" x="245.935118" xlink:href="#mc1a288e3ba" y="199.808807"/>
     <use style="fill:#4b9dda;stroke:#4b9dda;" x="147.016786" xlink:href="#mc1a288e3ba" y="130.378016"/>
     <use style="fill:#4b9dda;stroke:#4b9dda;" x="238.904793" xlink:href="#mc1a288e3ba" y="160.976136"/>
     <use style="fill:#4b9dda;stroke:#4b9dda;" x="187.80457" xlink:href="#mc1a288e3ba" y="122.65274"/>
     <use style="fill:#4b9dda;stroke:#4b9dda;" x="216.66536" xlink:href="#mc1a288e3ba" y="154.621898"/>
     <use style="fill:#4b9dda;stroke:#4b9dda;" x="263.236833" xlink:href="#mc1a288e3ba" y="106.169285"/>
     <use style="fill:#4b9dda;stroke:#4b9dda;" x="122.472728" xlink:href="#mc1a288e3ba" y="100.839083"/>
     <use style="fill:#4b9dda;stroke:#4b9dda;" x="210.946774" xlink:href="#mc1a288e3ba" y="48.894979"/>
     <use style="fill:#4b9dda;stroke:#4b9dda;" x="110.075466" xlink:href="#mc1a288e3ba" y="138.109673"/>
     <use style="fill:#4b9dda;stroke:#4b9dda;" x="193.655937" xlink:href="#mc1a288e3ba" y="64.015602"/>
     <use style="fill:#4b9dda;stroke:#4b9dda;" x="247.331699" xlink:href="#mc1a288e3ba" y="120.81038"/>
     <use style="fill:#4b9dda;stroke:#4b9dda;" x="156.867402" xlink:href="#mc1a288e3ba" y="211.579667"/>
     <use style="fill:#4b9dda;stroke:#4b9dda;" x="120.960094" xlink:href="#mc1a288e3ba" y="182.91033"/>
     <use style="fill:#4b9dda;stroke:#4b9dda;" x="323.402617" xlink:href="#mc1a288e3ba" y="135.957083"/>
     <use style="fill:#4b9dda;stroke:#4b9dda;" x="132.663611" xlink:href="#mc1a288e3ba" y="207.00416"/>
     <use style="fill:#4b9dda;stroke:#4b9dda;" x="296.539216" xlink:href="#mc1a288e3ba" y="76.276898"/>
     <use style="fill:#4b9dda;stroke:#4b9dda;" x="321.693425" xlink:href="#mc1a288e3ba" y="167.01407"/>
     <use style="fill:#4b9dda;stroke:#4b9dda;" x="192.657507" xlink:href="#mc1a288e3ba" y="144.195007"/>
     <use style="fill:#4b9dda;stroke:#4b9dda;" x="313.924834" xlink:href="#mc1a288e3ba" y="189.010923"/>
     <use style="fill:#4b9dda;stroke:#4b9dda;" x="273.44479" xlink:href="#mc1a288e3ba" y="234.202596"/>
     <use style="fill:#4b9dda;stroke:#4b9dda;" x="206.996085" xlink:href="#mc1a288e3ba" y="244.685684"/>
     <use style="fill:#4b9dda;stroke:#4b9dda;" x="305.456028" xlink:href="#mc1a288e3ba" y="210.307777"/>
     <use style="fill:#4b9dda;stroke:#4b9dda;" x="227.008763" xlink:href="#mc1a288e3ba" y="34.359446"/>
     <use style="fill:#4b9dda;stroke:#4b9dda;" x="171.638364" xlink:href="#mc1a288e3ba" y="230.072639"/>
     <use style="fill:#4b9dda;stroke:#4b9dda;" x="270.267818" xlink:href="#mc1a288e3ba" y="47.099884"/>
     <use style="fill:#4b9dda;stroke:#4b9dda;" x="248.350983" xlink:href="#mc1a288e3ba" y="40.815308"/>
     <use style="fill:#4b9dda;stroke:#4b9dda;" x="172.234029" xlink:href="#mc1a288e3ba" y="57.390818"/>
     <use style="fill:#4b9dda;stroke:#4b9dda;" x="190.032823" xlink:href="#mc1a288e3ba" y="41.976004"/>
     <use style="fill:#4b9dda;stroke:#4b9dda;" x="251.183802" xlink:href="#mc1a288e3ba" y="237.630095"/>
     <use style="fill:#4b9dda;stroke:#4b9dda;" x="184.747844" xlink:href="#mc1a288e3ba" y="248.010378"/>
    </g>
   </g>
  </g>
 </g>
 <defs>
  <clipPath id="pc6b5313589">
   <rect height="266.112" width="357.12" x="38.482813" y="10.7"/>
  </clipPath>
 </defs>
</svg>
